<?xml version="1.0" encoding="iso-8859-1"?>
<!-- Generator: Adobe Illustrator 19.0.0, SVG Export Plug-In . SVG Version: 6.00 Build 0)  -->
<svg version="1.1" id="Layer_1" xmlns="http://www.w3.org/2000/svg" xmlns:xlink="http://www.w3.org/1999/xlink" x="0px" y="0px"
	 viewBox="0 0 512 512" style="enable-background:new 0 0 512 512;" xml:space="preserve">
<path style="fill:#FF5023;" d="M256,512C114.839,512,0,397.156,0,256S114.839,0,256,0s256,114.844,256,256S397.161,512,256,512z"/>
<path style="fill:#CD2A00;" d="M512,256C512,114.844,397.161,0,256,0v512C397.161,512,512,397.156,512,256z"/>
<path style="fill:#FFFFFF;" d="M308.25,394.612c-3.17,0-6.377-0.903-9.214-2.783L113.491,268.747
	c-4.664-3.098-7.469-8.317-7.469-13.916s2.805-10.818,7.469-13.916l185.546-123.082c7.681-5.088,18.059-3,23.146,4.686
	c5.099,7.686,3,18.047-4.686,23.146L152.929,254.831l164.568,109.165c7.686,5.099,9.785,15.46,4.686,23.146
	C318.97,391.991,313.659,394.612,308.25,394.612z"/>
<g>
	<path style="fill:#FFE6B3;" d="M308.25,394.612c5.408,0,10.72-2.621,13.933-7.469c5.099-7.686,3-18.047-4.686-23.146
		l-61.182-40.585v40.079l42.721,28.338C301.874,393.709,305.081,394.612,308.25,394.612z"/>
	<path style="fill:#FFE6B3;" d="M299.036,117.833l-42.721,28.338v40.079l61.182-40.585c7.686-5.099,9.785-15.46,4.686-23.146
		C317.095,114.833,306.717,112.746,299.036,117.833z"/>
</g>
<g>
</g>
<g>
</g>
<g>
</g>
<g>
</g>
<g>
</g>
<g>
</g>
<g>
</g>
<g>
</g>
<g>
</g>
<g>
</g>
<g>
</g>
<g>
</g>
<g>
</g>
<g>
</g>
<g>
</g>
</svg>
