<svg id="Capa_1" enable-background="new 0 0 512 512" height="512" viewBox="0 0 512 512" width="512" xmlns="http://www.w3.org/2000/svg"><g><path d="m316.271 406.001h-27.271c-24.813 0-45 20.187-45 45v45.999c0 8.284 6.716 15 15 15s15-6.716 15-15v-45.999c0-8.271 6.729-15 15-15h50.108c6.222 0 12.295-1.335 17.873-3.761l-37.127-23.752c-1.235-.791-2.421-1.629-3.583-2.487z"/><path d="m336.02 383.22 19.09 12.21 76.63-132.5c1.364-9.516 1.911-19.157 1.79-27.43l-6.22-3.81c-15.973-9.778-36.819-4.559-46.31 11.57l-55.79 94.79c-9.17 15.58-4.42 35.42 10.81 45.17z"/><path d="m131 243.26c-9.498-16.141-30.349-21.341-46.31-11.57l-6.22 3.81c-.123 8.344.437 17.99 1.79 27.43l76.63 132.5 19.09-12.21c15.23-9.75 19.98-29.59 10.81-45.17z"/><circle cx="196.5" cy="271.672" r="15"/><circle cx="256" cy="272.172" r="15"/><circle cx="315.5" cy="272.672" r="15"/><path d="m484.203 292.071c2.837-5.235 4.623-7.049 5.351-10.977 27.165-146.518-85.142-281.094-233.554-281.094-148.437 0-260.714 134.605-233.554 281.094.729 3.931 2.515 5.746 5.351 10.977-23.888 20.362-30.593 55.579-14.262 83.645 16.496 28.348 50.367 39.503 79.446 29.068l5.456 9.434c4.147 7.171 13.322 9.625 20.495 5.476 7.171-4.147 9.623-13.323 5.475-20.494l-72.911-126.074c-8.508-49.303.62-102.053 29.717-147.385l3.838 5.548c16.387 23.711 47.499 27.584 67.74 6.85 59.788-61.274 146.323-61.457 206.29 0 20.113 20.63 51.258 16.984 67.73-6.85l3.909-5.651c29.065 45.223 38.329 97.978 29.785 147.488l-72.912 126.074c-4.147 7.171-1.696 16.347 5.475 20.494 7.172 4.147 16.348 1.695 20.495-5.476l5.456-9.434c29.076 10.434 62.949-.717 79.446-29.068 16.331-28.066 9.626-63.283-14.262-83.645z"/></g></svg>