<svg id="Capa_1" enable-background="new 0 0 512 512" height="512" viewBox="0 0 512 512" width="512" xmlns="http://www.w3.org/2000/svg"><g><path d="m78.14 121.3c9.469 13.69 6.203 8.969 6.91 9.99 16.41 23.74 47.52 27.56 67.74 6.85 59.41-60.896 146.105-61.824 206.42 0 20.22 20.71 51.33 16.89 67.74-6.85.707-1.022-2.56 3.701 6.91-9.99-84.119-128.277-271.521-128.399-355.72 0z" fill="#f964ab"/><path d="m433.86 121.3c-5.07 7.33-6.49 9.38-6.82 9.86v.01c-.02.02-.03.03-.04.04v.01c-.02.02-.03.04-.03.04-.02.03-.02.03-.02.03-16.41 23.74-47.52 27.56-67.74 6.85-30.06-30.81-66.68-46.04-103.21-46.02v-67.08c67.9.01 135.79 32.12 177.86 96.26z" fill="#e23485"/><path d="m379.29 404.92-5.71 9.42c-8.1 13.36-22.84 21.66-38.47 21.66h-50.11c-8.27 0-15 6.73-15 15v46c0 8.28-6.72 15-15 15s-15-6.72-15-15v-46c0-24.81 20.19-45 45-45h50.11c5.21 0 10.12-2.77 12.82-7.22l6.08-10.03z" fill="#95c7ee"/><path d="m379.29 404.92-5.71 9.42c-8.1 13.36-22.84 21.66-38.47 21.66h-50.11c-8.27 0-15 6.73-15 15v46c0 7.94-6.18 14.45-14 14.96v-95.34c7.83-6.62 17.97-10.62 29-10.62h50.11c5.21 0 10.12-2.77 12.82-7.22l6.08-10.03z" fill="#86bfec"/><path d="m175.958 383.192-44.39 28.39-7.59-2.61-76.83-133.37c-.29-.51-.5-1.07-.6-1.65-1-5.79-1.76-11.66-2.28-17.57l40.4-24.72c7.71-4.72 16.8-6.12 25.58-3.92 8.78 2.19 16.14 7.69 20.73 15.49l55.79 94.79c9.17 15.58 4.42 35.42-10.81 45.17z" fill="#e23485"/><circle cx="196.5" cy="271.672" fill="#b2d7f3" r="15"/><circle cx="256" cy="272.172" fill="#b2d7f3" r="15"/><path d="m271 272.17c0 8.29-6.72 15-15 15v-30c8.28 0 15 6.72 15 15z" fill="#95c7ee"/><circle cx="315.5" cy="272.672" fill="#95c7ee" r="15"/><path d="m97.66 402.9c-30.854 13.83-67.163 1.966-84.12-27.18-17.21-29.57-8.86-67.08 18.22-86.79z" fill="#544698"/><path d="m336.042 383.192 44.39 28.39 7.59-2.61 76.83-133.37c.29-.51.5-1.07.6-1.65 1-5.79 1.76-11.66 2.28-17.57l-40.4-24.72c-7.71-4.72-16.8-6.12-25.58-3.92-8.78 2.19-16.14 7.69-20.73 15.49l-55.79 94.79c-9.17 15.58-4.42 35.42 10.81 45.17z" fill="#d11569"/><path d="m414.34 402.9c30.854 13.83 67.163 1.966 84.12-27.18 17.21-29.57 8.86-67.08-18.22-86.79z" fill="#463b81"/><g><path d="m18.46 237.54c0 14.63 1.34 29.28 3.99 43.55.31 1.68.9 3.3 1.76 4.78l74.19 128.28c4.27 7.39 13.83 9.73 21.03 5.15l12.14-7.72-80.07-138.45c-2.02-11.68-3.04-23.64-3.04-35.59 0-114.622 93.295-207.54 207.54-207.54v-30c-131.286 0-237.54 106.239-237.54 237.54z" fill="#6354ad"/><path d="m256 0v30c114.271 0 207.54 92.965 207.54 207.54 0 11.95-1.02 23.91-3.04 35.59l-80.07 138.45 12.14 7.72c7.2 4.58 16.76 2.24 21.03-5.15l74.19-128.28c.86-1.48 1.45-3.1 1.76-4.78 2.65-14.27 3.99-28.92 3.99-43.55 0-131.286-106.239-237.54-237.54-237.54z" fill="#544698"/></g></g></svg>