<?xml version="1.0" encoding="iso-8859-1"?>
<!-- Generator: Adobe Illustrator 19.0.0, SVG Export Plug-In . SVG Version: 6.00 Build 0)  -->
<svg version="1.1" id="Capa_1" xmlns="http://www.w3.org/2000/svg" xmlns:xlink="http://www.w3.org/1999/xlink" x="0px" y="0px"
	 viewBox="0 0 494.464 494.464" style="enable-background:new 0 0 494.464 494.464;" xml:space="preserve">
<g>
	<g>
		<g>
			<polygon points="296.368,15.488 353.744,72.832 376.368,50.208 368.128,41.968 459.648,34.816 452.496,126.336 398.992,72.848 
				308.496,163.344 331.12,185.968 398.992,118.096 478.976,198.096 494.464,0 			"/>
			<rect x="268.728" y="193.752" transform="matrix(-0.7071 -0.7071 0.7071 -0.7071 337.7452 559.4018)" width="32" height="32"/>
			<polygon points="185.968,331.12 163.344,308.496 72.848,398.992 126.336,452.496 34.816,459.648 41.968,368.128 50.208,376.368 
				72.832,353.744 15.488,296.368 0,494.464 198.096,478.976 118.096,398.992 			"/>
			<rect x="193.736" y="268.728" transform="matrix(-0.7071 -0.7071 0.7071 -0.7071 156.7094 634.3676)" width="32" height="32"/>
		</g>
	</g>
</g>
<g>
</g>
<g>
</g>
<g>
</g>
<g>
</g>
<g>
</g>
<g>
</g>
<g>
</g>
<g>
</g>
<g>
</g>
<g>
</g>
<g>
</g>
<g>
</g>
<g>
</g>
<g>
</g>
<g>
</g>
</svg>
